# xmcd
#
# Track frame offsets: 
#        150
#        10287
#        32640
#        43544
#        53685
#        73329
#        88795
#        107173
#        117690
#        130511
#        150400
#        163592
#        179943
#        201259
#        221037
#        234978
#        250446
#        260264
#        273446
#        293983
#        308308
#
# Disc length: 4483 seconds
#
# Revision: 6
# Processed by: cddbd v1.5.2PL0 Copyright (c) Steve Scherf et al.
# Submitted via: ExactAudioCopy v1.1
#
DISCID=33118115
DTITLE=Dj Neil and Nano Dj - Scorpia Central Del Sonido-8 Aniversario - 
DTITLE=On Tour Session
DYEAR=2000
DGENRE=Trance
TTITLE0=Barthez - On The Move (Dumonde Mix)
TTITLE1=Mauro Picotto - Like This Like That
TTITLE2=Liberty - Seguro
TTITLE3=Ben Sims - Manipulated
TTITLE4=Pulsedriver - Cambodia
TTITLE5=Das Licht - Trilogie
TTITLE6=Dj Spoke - Youre Ready 4 Me
TTITLE7=Plaything - Into Space
TTITLE8=Rooky - Secrets
TTITLE9=Ado The Dream - Focus On (It Goes On Mix)
TTITLE10=Push - Strange World
TTITLE11=Ballon - Technorocker
TTITLE12=Dumonde - Never Look Back
TTITLE13=Marco V - Phase Three
TTITLE14=Dj Session One - Ocean Of Emotion
TTITLE15=Thomas Trouble - Insane Asylum
TTITLE16=Checkmate - Another World
TTITLE17=Joshua Ryan - Pistol Whip
TTITLE18=Sylver - Forever In Love
TTITLE19=Tale Spin - Reporting Utility
TTITLE20=Barthez - On The Move (Tommy Pulse Remix)
EXTD=YEAR: 2001
EXTT0=
EXTT1=
EXTT2=
EXTT3=
EXTT4=
EXTT5=
EXTT6=
EXTT7=
EXTT8=
EXTT9=
EXTT10=
EXTT11=
EXTT12=
EXTT13=
EXTT14=
EXTT15=
EXTT16=
EXTT17=
EXTT18=
EXTT19=
EXTT20=
PLAYORDER=
